<svg width="45" height="66" viewBox="0 0 30 44" fill="none" xmlns="http://www.w3.org/2000/svg">
<rect width="2.7037" height="2.7037" fill="black"/>
<rect y="2.7037" width="2.7037" height="2.7037" fill="black"/>
<rect x="2.70374" y="2.7037" width="2.7037" height="2.7037" fill="black"/>
<rect y="5.40741" width="2.7037" height="2.7037" fill="black"/>
<rect x="5.40735" y="5.40741" width="2.7037" height="2.7037" fill="black"/>
<rect y="8.11111" width="2.7037" height="2.7037" fill="black"/>
<rect x="8.11108" y="8.11111" width="2.7037" height="2.7037" fill="black"/>
<rect x="10.8148" y="10.8148" width="2.7037" height="2.7037" fill="black"/>
<rect x="13.5186" y="13.5185" width="2.7037" height="2.7037" fill="black"/>
<rect x="16.2222" y="16.2222" width="2.7037" height="2.7037" fill="black"/>
<rect x="18.9259" y="18.9259" width="2.7037" height="2.7037" fill="black"/>
<rect x="21.6296" y="21.6296" width="2.7037" height="2.7037" fill="black"/>
<rect x="24.3334" y="24.3333" width="2.7037" height="2.7037" fill="black"/>
<rect y="10.8148" width="2.7037" height="2.7037" fill="black"/>
<rect y="13.5185" width="2.7037" height="2.7037" fill="black"/>
<rect y="16.2222" width="2.7037" height="2.7037" fill="black"/>
<rect y="18.9259" width="2.7037" height="2.7037" fill="black"/>
<rect y="21.6296" width="2.7037" height="2.7037" fill="black"/>
<rect y="24.3333" width="2.7037" height="2.7037" fill="black"/>
<rect y="27.037" width="2.7037" height="2.7037" fill="black"/>
<rect x="27.037" y="27.037" width="2.7037" height="2.7037" fill="black"/>
<rect x="24.3334" y="27.037" width="2.7037" height="2.7037" fill="black"/>
<rect x="21.6296" y="27.037" width="2.7037" height="2.7037" fill="black"/>
<rect x="18.9259" y="27.037" width="2.7037" height="2.7037" fill="black"/>
<rect x="16.2222" y="27.037" width="2.7037" height="2.7037" fill="black"/>
<rect x="16.2222" y="29.7407" width="2.7037" height="2.7037" fill="black"/>
<rect x="18.9259" y="32.4444" width="2.7037" height="2.7037" fill="black"/>
<rect x="18.9259" y="35.1481" width="2.7037" height="2.7037" fill="black"/>
<rect x="21.6296" y="37.8519" width="2.7037" height="2.7037" fill="black"/>
<rect x="18.9259" y="40.5556" width="2.7037" height="2.7037" fill="black"/>
<rect x="16.2222" y="40.5556" width="2.7037" height="2.7037" fill="black"/>
<rect y="29.7407" width="2.7037" height="2.7037" fill="black"/>
<rect y="32.4444" width="2.7037" height="2.7037" fill="black"/>
<rect x="10.8148" y="32.4444" width="2.7037" height="2.7037" fill="black"/>
<rect x="10.8148" y="35.1481" width="2.7037" height="2.7037" fill="black"/>
<rect x="13.5186" y="37.8519" width="2.7037" height="2.7037" fill="black"/>
<rect x="13.5186" y="40.5556" width="2.7037" height="2.7037" fill="black"/>
<rect y="35.1481" width="2.7037" height="2.7037" fill="black"/>
<rect x="2.70374" y="35.1481" width="2.7037" height="2.7037" fill="black"/>
<rect x="5.40735" y="32.4444" width="2.7037" height="2.7037" fill="black"/>
<rect x="8.11108" y="29.7407" width="2.7037" height="2.7037" fill="black"/>
<rect x="8.11108" y="21.6296" width="2.7037" height="2.7037" fill="white"/>
<rect x="8.11108" y="24.3333" width="2.7037" height="2.7037" fill="white"/>
<rect x="8.11108" y="27.037" width="2.7037" height="2.7037" fill="white"/>
<rect x="10.8148" y="27.037" width="2.7037" height="2.7037" fill="white"/>
<rect x="10.8148" y="29.7407" width="2.7037" height="2.7037" fill="white"/>
<rect x="13.5186" y="29.7407" width="2.7037" height="2.7037" fill="white"/>
<rect x="13.5186" y="32.4444" width="2.7037" height="2.7037" fill="white"/>
<rect x="13.5186" y="35.1481" width="2.7037" height="2.7037" fill="white"/>
<rect x="16.2222" y="35.1481" width="2.7037" height="2.7037" fill="white"/>
<rect x="16.2222" y="37.8519" width="2.7037" height="2.7037" fill="white"/>
<rect x="18.9259" y="37.8519" width="2.7037" height="2.7037" fill="white"/>
<rect x="16.2222" y="32.4444" width="2.7037" height="2.7037" fill="white"/>
<rect x="13.5186" y="27.037" width="2.7037" height="2.7037" fill="white"/>
<rect x="13.5186" y="24.3333" width="2.7037" height="2.7037" fill="white"/>
<rect x="13.5186" y="21.6296" width="2.7037" height="2.7037" fill="white"/>
<rect x="13.5186" y="18.9259" width="2.7037" height="2.7037" fill="white"/>
<rect x="13.5186" y="16.2222" width="2.7037" height="2.7037" fill="white"/>
<rect x="10.8148" y="16.2222" width="2.7037" height="2.7037" fill="white"/>
<rect x="10.8148" y="18.9259" width="2.7037" height="2.7037" fill="white"/>
<rect x="10.8148" y="21.6296" width="2.7037" height="2.7037" fill="white"/>
<rect x="10.8148" y="24.3333" width="2.7037" height="2.7037" fill="white"/>
<rect x="8.11108" y="18.9259" width="2.7037" height="2.7037" fill="white"/>
<rect x="8.11108" y="16.2222" width="2.7037" height="2.7037" fill="white"/>
<rect x="8.11108" y="13.5185" width="2.7037" height="2.7037" fill="white"/>
<rect x="8.11108" y="10.8148" width="2.7037" height="2.7037" fill="white"/>
<rect x="5.40735" y="10.8148" width="2.7037" height="2.7037" fill="white"/>
<rect x="5.40735" y="13.5185" width="2.7037" height="2.7037" fill="white"/>
<rect x="5.40735" y="16.2222" width="2.7037" height="2.7037" fill="white"/>
<rect x="5.40735" y="18.9259" width="2.7037" height="2.7037" fill="white"/>
<rect x="5.40735" y="21.6296" width="2.7037" height="2.7037" fill="white"/>
<rect x="5.40735" y="24.3333" width="2.7037" height="2.7037" fill="white"/>
<rect x="5.40735" y="27.037" width="2.7037" height="2.7037" fill="white"/>
<rect x="5.40735" y="29.7407" width="2.7037" height="2.7037" fill="white"/>
<rect x="2.70374" y="29.7407" width="2.7037" height="2.7037" fill="white"/>
<rect x="2.70374" y="32.4444" width="2.7037" height="2.7037" fill="white"/>
<rect x="2.70374" y="27.037" width="2.7037" height="2.7037" fill="white"/>
<rect x="2.70374" y="24.3333" width="2.7037" height="2.7037" fill="white"/>
<rect x="2.70374" y="21.6296" width="2.7037" height="2.7037" fill="white"/>
<rect x="2.70374" y="18.9259" width="2.7037" height="2.7037" fill="white"/>
<rect x="2.70374" y="16.2222" width="2.7037" height="2.7037" fill="white"/>
<rect x="2.70374" y="13.5185" width="2.7037" height="2.7037" fill="white"/>
<rect x="2.70374" y="10.8148" width="2.7037" height="2.7037" fill="white"/>
<rect x="2.70374" y="8.11111" width="2.7037" height="2.7037" fill="white"/>
<rect x="2.70374" y="5.40741" width="2.7037" height="2.7037" fill="white"/>
<rect x="5.40735" y="8.11111" width="2.7037" height="2.7037" fill="white"/>
<rect x="10.8148" y="13.5185" width="2.7037" height="2.7037" fill="white"/>
<rect x="16.2222" y="18.9259" width="2.7037" height="2.7037" fill="white"/>
<rect x="16.2222" y="21.6296" width="2.7037" height="2.7037" fill="white"/>
<rect x="16.2222" y="24.3333" width="2.7037" height="2.7037" fill="white"/>
<rect x="18.9259" y="24.3333" width="2.7037" height="2.7037" fill="white"/>
<rect x="18.9259" y="21.6296" width="2.7037" height="2.7037" fill="white"/>
<rect x="21.6296" y="24.3333" width="2.7037" height="2.7037" fill="white"/>
</svg>
