<svg width="20" height="21" viewBox="0 0 38 40" fill="none" xmlns="http://www.w3.org/2000/svg">
<rect x="10" width="2.5" height="2.5" fill="black"/>
<rect x="12.5" width="2.5" height="2.5" fill="black"/>
<rect x="7.5" y="2.5" width="2.5" height="2.5" fill="black"/>
<rect x="7.5" y="5" width="2.5" height="2.5" fill="black"/>
<rect x="7.5" y="7.5" width="2.5" height="2.5" fill="black"/>
<rect x="7.5" y="10" width="2.5" height="2.5" fill="black"/>
<rect x="7.5" y="12.5" width="2.5" height="2.5" fill="black"/>
<rect x="7.5" y="15" width="2.5" height="2.5" fill="black"/>
<rect x="7.5" y="17.5" width="2.5" height="2.5" fill="black"/>
<rect x="7.5" y="20" width="2.5" height="2.5" fill="black"/>
<rect x="2.5" y="15" width="2.5" height="2.5" fill="black"/>
<rect x="5" y="15" width="2.5" height="2.5" fill="black"/>
<rect y="17.5" width="2.5" height="2.5" fill="black"/>
<rect y="20" width="2.5" height="2.5" fill="black"/>
<rect x="2.5" y="22.5" width="2.5" height="2.5" fill="black"/>
<rect x="5" y="25" width="2.5" height="2.5" fill="black"/>
<rect x="7.5" y="27.5" width="2.5" height="2.5" fill="black"/>
<rect x="7.5" y="30" width="2.5" height="2.5" fill="black"/>
<rect x="10" y="32.5" width="2.5" height="2.5" fill="black"/>
<rect x="10" y="35" width="2.5" height="2.5" fill="black"/>
<rect x="12.5" y="37.5" width="2.5" height="2.5" fill="black"/>
<rect x="15" y="37.5" width="2.5" height="2.5" fill="black"/>
<rect x="17.5" y="37.5" width="2.5" height="2.5" fill="black"/>
<rect x="20" y="37.5" width="2.5" height="2.5" fill="black"/>
<rect x="22.5" y="37.5" width="2.5" height="2.5" fill="black"/>
<rect x="25" y="37.5" width="2.5" height="2.5" fill="black"/>
<rect x="15" y="2.5" width="2.5" height="2.5" fill="black"/>
<rect x="15" y="5" width="2.5" height="2.5" fill="black"/>
<rect x="15" y="7.5" width="2.5" height="2.5" fill="black"/>
<rect x="15" y="10" width="2.5" height="2.5" fill="black"/>
<rect x="17.5" y="10" width="2.5" height="2.5" fill="black"/>
<rect x="20" y="10" width="2.5" height="2.5" fill="black"/>
<rect x="15" y="12.5" width="2.5" height="2.5" fill="black"/>
<rect x="15" y="15" width="2.5" height="2.5" fill="black"/>
<rect x="22.5" y="12.5" width="2.5" height="2.5" fill="black"/>
<rect x="22.5" y="15" width="2.5" height="2.5" fill="black"/>
<rect x="22.5" y="17.5" width="2.5" height="2.5" fill="black"/>
<rect x="25" y="12.5" width="2.5" height="2.5" fill="black"/>
<rect x="27.5" y="12.5" width="2.5" height="2.5" fill="black"/>
<rect x="30" y="15" width="2.5" height="2.5" fill="black"/>
<rect x="30" y="17.5" width="2.5" height="2.5" fill="black"/>
<rect x="30" y="20" width="2.5" height="2.5" fill="black"/>
<rect x="32.5" y="17.5" width="2.5" height="2.5" fill="black"/>
<rect x="35" y="20" width="2.5" height="2.5" fill="black"/>
<rect x="35" y="22.5" width="2.5" height="2.5" fill="black"/>
<rect x="35" y="25" width="2.5" height="2.5" fill="black"/>
<rect x="35" y="27.5" width="2.5" height="2.5" fill="black"/>
<rect x="32.5" y="30" width="2.5" height="2.5" fill="black"/>
<rect x="32.5" y="32.5" width="2.5" height="2.5" fill="black"/>
<rect x="30" y="35" width="2.5" height="2.5" fill="black"/>
<rect x="27.5" y="37.5" width="2.5" height="2.5" fill="black"/>
<rect x="15" y="22.5" width="2.5" height="2.5" fill="white"/>
<rect x="15" y="25" width="2.5" height="2.5" fill="white"/>
<rect x="15" y="27.5" width="2.5" height="2.5" fill="white"/>
<rect x="15" y="30" width="2.5" height="2.5" fill="white"/>
<rect x="15" y="32.5" width="2.5" height="2.5" fill="white"/>
<rect x="15" y="35" width="2.5" height="2.5" fill="white"/>
<rect x="17.5" y="35" width="2.5" height="2.5" fill="white"/>
<rect x="17.5" y="32.5" width="2.5" height="2.5" fill="white"/>
<rect x="17.5" y="30" width="2.5" height="2.5" fill="white"/>
<rect x="17.5" y="27.5" width="2.5" height="2.5" fill="white"/>
<rect x="17.5" y="25" width="2.5" height="2.5" fill="white"/>
<rect x="17.5" y="22.5" width="2.5" height="2.5" fill="white"/>
<rect x="17.5" y="20" width="2.5" height="2.5" fill="white"/>
<rect x="17.5" y="17.5" width="2.5" height="2.5" fill="white"/>
<rect x="17.5" y="15" width="2.5" height="2.5" fill="white"/>
<rect x="17.5" y="12.5" width="2.5" height="2.5" fill="white"/>
<rect x="20" y="12.5" width="2.5" height="2.5" fill="white"/>
<rect x="20" y="15" width="2.5" height="2.5" fill="white"/>
<rect x="20" y="17.5" width="2.5" height="2.5" fill="white"/>
<rect x="20" y="20" width="2.5" height="2.5" fill="white"/>
<rect x="20" y="22.5" width="2.5" height="2.5" fill="white"/>
<rect x="20" y="25" width="2.5" height="2.5" fill="white"/>
<rect x="20" y="27.5" width="2.5" height="2.5" fill="white"/>
<rect x="20" y="30" width="2.5" height="2.5" fill="white"/>
<rect x="20" y="32.5" width="2.5" height="2.5" fill="white"/>
<rect x="20" y="35" width="2.5" height="2.5" fill="white"/>
<rect x="22.5" y="35" width="2.5" height="2.5" fill="white"/>
<rect x="22.5" y="32.5" width="2.5" height="2.5" fill="white"/>
<rect x="22.5" y="30" width="2.5" height="2.5" fill="white"/>
<rect x="22.5" y="27.5" width="2.5" height="2.5" fill="white"/>
<rect x="22.5" y="25" width="2.5" height="2.5" fill="white"/>
<rect x="22.5" y="22.5" width="2.5" height="2.5" fill="white"/>
<rect x="22.5" y="20" width="2.5" height="2.5" fill="white"/>
<rect x="25" y="20" width="2.5" height="2.5" fill="white"/>
<rect x="25" y="22.5" width="2.5" height="2.5" fill="white"/>
<rect x="25" y="25" width="2.5" height="2.5" fill="white"/>
<rect x="25" y="27.5" width="2.5" height="2.5" fill="white"/>
<rect x="25" y="30" width="2.5" height="2.5" fill="white"/>
<rect x="25" y="32.5" width="2.5" height="2.5" fill="white"/>
<rect x="25" y="35" width="2.5" height="2.5" fill="white"/>
<rect x="27.5" y="35" width="2.5" height="2.5" fill="white"/>
<rect x="27.5" y="32.5" width="2.5" height="2.5" fill="white"/>
<rect x="27.5" y="30" width="2.5" height="2.5" fill="white"/>
<rect x="27.5" y="27.5" width="2.5" height="2.5" fill="white"/>
<rect x="27.5" y="25" width="2.5" height="2.5" fill="white"/>
<rect x="27.5" y="22.5" width="2.5" height="2.5" fill="white"/>
<rect x="27.5" y="20" width="2.5" height="2.5" fill="white"/>
<rect x="27.5" y="17.5" width="2.5" height="2.5" fill="white"/>
<rect x="27.5" y="15" width="2.5" height="2.5" fill="white"/>
<rect x="25" y="15" width="2.5" height="2.5" fill="white"/>
<rect x="25" y="17.5" width="2.5" height="2.5" fill="white"/>
<rect x="30" y="22.5" width="2.5" height="2.5" fill="white"/>
<rect x="30" y="25" width="2.5" height="2.5" fill="white"/>
<rect x="30" y="27.5" width="2.5" height="2.5" fill="white"/>
<rect x="30" y="30" width="2.5" height="2.5" fill="white"/>
<rect x="30" y="32.5" width="2.5" height="2.5" fill="white"/>
<rect x="32.5" y="27.5" width="2.5" height="2.5" fill="white"/>
<rect x="32.5" y="25" width="2.5" height="2.5" fill="white"/>
<rect x="32.5" y="22.5" width="2.5" height="2.5" fill="white"/>
<rect x="32.5" y="20" width="2.5" height="2.5" fill="white"/>
<rect x="15" y="17.5" width="2.5" height="2.5" fill="white"/>
<rect x="15" y="20" width="2.5" height="2.5" fill="white"/>
<rect x="12.5" y="20" width="2.5" height="2.5" fill="white"/>
<rect x="12.5" y="22.5" width="2.5" height="2.5" fill="white"/>
<rect x="12.5" y="25" width="2.5" height="2.5" fill="white"/>
<rect x="12.5" y="27.5" width="2.5" height="2.5" fill="white"/>
<rect x="12.5" y="30" width="2.5" height="2.5" fill="white"/>
<rect x="12.5" y="32.5" width="2.5" height="2.5" fill="white"/>
<rect x="12.5" y="35" width="2.5" height="2.5" fill="white"/>
<rect x="10" y="30" width="2.5" height="2.5" fill="white"/>
<rect x="10" y="27.5" width="2.5" height="2.5" fill="white"/>
<rect x="10" y="25" width="2.5" height="2.5" fill="white"/>
<rect x="10" y="22.5" width="2.5" height="2.5" fill="white"/>
<rect x="10" y="20" width="2.5" height="2.5" fill="white"/>
<rect x="10" y="17.5" width="2.5" height="2.5" fill="white"/>
<rect x="10" y="15" width="2.5" height="2.5" fill="white"/>
<rect x="10" y="12.5" width="2.5" height="2.5" fill="white"/>
<rect x="10" y="10" width="2.5" height="2.5" fill="white"/>
<rect x="10" y="7.5" width="2.5" height="2.5" fill="white"/>
<rect x="10" y="5" width="2.5" height="2.5" fill="white"/>
<rect x="10" y="2.5" width="2.5" height="2.5" fill="white"/>
<rect x="12.5" y="2.5" width="2.5" height="2.5" fill="white"/>
<rect x="12.5" y="5" width="2.5" height="2.5" fill="white"/>
<rect x="12.5" y="7.5" width="2.5" height="2.5" fill="white"/>
<rect x="12.5" y="10" width="2.5" height="2.5" fill="white"/>
<rect x="12.5" y="12.5" width="2.5" height="2.5" fill="white"/>
<rect x="12.5" y="15" width="2.5" height="2.5" fill="white"/>
<rect x="12.5" y="17.5" width="2.5" height="2.5" fill="white"/>
<rect x="7.5" y="22.5" width="2.5" height="2.5" fill="white"/>
<rect x="7.5" y="25" width="2.5" height="2.5" fill="white"/>
<rect x="5" y="22.5" width="2.5" height="2.5" fill="white"/>
<rect x="5" y="20" width="2.5" height="2.5" fill="white"/>
<rect x="5" y="17.5" width="2.5" height="2.5" fill="white"/>
<rect x="2.5" y="17.5" width="2.5" height="2.5" fill="white"/>
<rect x="2.5" y="20" width="2.5" height="2.5" fill="white"/>
</svg>
