<svg width="68" height="64" viewBox="0 0 68 64" fill="none" xmlns="http://www.w3.org/2000/svg">
<rect y="16.875" width="4.21875" height="4.21875" fill="black"/>
<rect y="21.0938" width="4.21875" height="4.21875" fill="black"/>
<rect y="25.3125" width="4.21875" height="4.21875" fill="black"/>
<rect y="29.5312" width="4.21875" height="4.21875" fill="black"/>
<rect y="33.75" width="4.21875" height="4.21875" fill="black"/>
<rect y="37.9688" width="4.21875" height="4.21875" fill="black"/>
<rect x="4.21875" y="42.1875" width="4.21875" height="4.21875" fill="white"/>
<rect x="8.4375" y="46.4062" width="4.21875" height="4.21875" fill="#F5C956"/>
<rect x="12.6562" y="50.625" width="4.21875" height="4.21875" fill="#F5C956"/>
<rect x="16.875" y="54.8438" width="4.21875" height="4.21875" fill="#F5C956"/>
<rect x="21.0938" y="59.0625" width="4.21875" height="4.21875" fill="black"/>
<rect x="16.875" y="59.0625" width="4.21875" height="4.21875" fill="black"/>
<rect x="12.6562" y="54.8438" width="4.21875" height="4.21875" fill="black"/>
<rect x="8.4375" y="50.625" width="4.21875" height="4.21875" fill="black"/>
<rect x="4.21875" y="46.4062" width="4.21875" height="4.21875" fill="black"/>
<rect y="42.1875" width="4.21875" height="4.21875" fill="black"/>
<rect x="25.3125" y="59.0625" width="4.21875" height="4.21875" fill="black"/>
<rect x="37.9688" y="59.0625" width="4.21875" height="4.21875" fill="black"/>
<rect x="29.5312" y="59.0625" width="4.21875" height="4.21875" fill="black"/>
<rect x="33.75" y="59.0625" width="4.21875" height="4.21875" fill="black"/>
<rect x="42.1875" y="59.0625" width="4.21875" height="4.21875" fill="black"/>
<rect x="46.4062" y="59.0625" width="4.21875" height="4.21875" fill="black"/>
<rect x="46.4062" y="54.8438" width="4.21875" height="4.21875" fill="#F5C956"/>
<rect x="50.625" y="54.8438" width="4.21875" height="4.21875" fill="black"/>
<rect x="50.625" y="50.625" width="4.21875" height="4.21875" fill="#F5C956"/>
<rect x="54.8438" y="50.625" width="4.21875" height="4.21875" fill="black"/>
<rect x="54.8438" y="46.4062" width="4.21875" height="4.21875" fill="#F5C956"/>
<rect x="59.0625" y="46.4062" width="4.21875" height="4.21875" fill="black"/>
<rect x="59.0625" y="42.1875" width="4.21875" height="4.21875" fill="#F5C956"/>
<rect x="63.2812" y="42.1875" width="4.21875" height="4.21875" fill="black"/>
<rect x="29.5312" y="54.8438" width="4.21875" height="4.21875" fill="#F5C956"/>
<rect x="33.75" y="54.8438" width="4.21875" height="4.21875" fill="#F5C956"/>
<rect x="25.3125" y="54.8438" width="4.21875" height="4.21875" fill="#F5C956"/>
<rect x="37.9688" y="54.8438" width="4.21875" height="4.21875" fill="#F5C956"/>
<rect x="21.0938" y="54.8438" width="4.21875" height="4.21875" fill="#F5C956"/>
<rect x="42.1875" y="54.8438" width="4.21875" height="4.21875" fill="#F5C956"/>
<rect x="16.875" y="50.625" width="4.21875" height="4.21875" fill="#F5C956"/>
<rect x="46.4062" y="50.625" width="4.21875" height="4.21875" fill="#F5C956"/>
<rect x="12.6562" y="46.4062" width="4.21875" height="4.21875" fill="#F5C956"/>
<rect x="50.625" y="46.4062" width="4.21875" height="4.21875" fill="#F5C956"/>
<rect x="8.4375" y="42.1875" width="4.21875" height="4.21875" fill="#F5C956"/>
<rect x="54.8438" y="42.1875" width="4.21875" height="4.21875" fill="#F5C956"/>
<rect x="8.4375" y="37.9688" width="4.21875" height="4.21875" fill="#F5C956"/>
<rect x="54.8438" y="37.9688" width="4.21875" height="4.21875" fill="#F5C956"/>
<rect x="63.2812" y="37.9688" width="4.21875" height="4.21875" fill="black"/>
<rect x="4.21875" y="37.9688" width="4.21875" height="4.21875" fill="#F5C956"/>
<rect x="59.0625" y="37.9688" width="4.21875" height="4.21875" fill="#F5C956"/>
<rect x="16.875" width="4.21875" height="4.21875" fill="black"/>
<rect x="46.4062" width="4.21875" height="4.21875" fill="black"/>
<rect x="21.0938" width="4.21875" height="4.21875" fill="black"/>
<rect x="42.1875" width="4.21875" height="4.21875" fill="black"/>
<rect x="25.3125" width="4.21875" height="4.21875" fill="black"/>
<rect x="37.9688" width="4.21875" height="4.21875" fill="black"/>
<rect x="29.5312" width="4.21875" height="4.21875" fill="black"/>
<rect x="33.75" width="4.21875" height="4.21875" fill="black"/>
<rect x="12.6562" y="4.21875" width="4.21875" height="4.21875" fill="black"/>
<rect x="50.625" y="4.21875" width="4.21875" height="4.21875" fill="black"/>
<rect x="8.4375" y="8.4375" width="4.21875" height="4.21875" fill="black"/>
<rect x="54.8438" y="8.4375" width="4.21875" height="4.21875" fill="black"/>
<rect x="4.21875" y="12.6562" width="4.21875" height="4.21875" fill="black"/>
<rect x="59.0625" y="12.6562" width="4.21875" height="4.21875" fill="black"/>
<rect x="63.2812" y="16.875" width="4.21875" height="4.21875" fill="black"/>
<rect x="63.2812" y="21.0938" width="4.21875" height="4.21875" fill="black"/>
<rect x="63.2812" y="25.3125" width="4.21875" height="4.21875" fill="black"/>
<rect x="63.2812" y="29.5312" width="4.21875" height="4.21875" fill="black"/>
<rect x="63.2812" y="33.75" width="4.21875" height="4.21875" fill="black"/>
<rect x="16.875" y="4.21875" width="4.21875" height="4.21875" fill="white"/>
<rect x="46.4062" y="4.21875" width="4.21875" height="4.21875" fill="#F5C956"/>
<rect x="12.6562" y="8.4375" width="4.21875" height="4.21875" fill="white"/>
<rect x="50.625" y="8.4375" width="4.21875" height="4.21875" fill="#F5C956"/>
<rect x="8.4375" y="12.6562" width="4.21875" height="4.21875" fill="white"/>
<rect x="54.8438" y="12.6562" width="4.21875" height="4.21875" fill="#F5C956"/>
<rect x="4.21875" y="16.875" width="4.21875" height="4.21875" fill="white"/>
<rect x="59.0625" y="16.875" width="4.21875" height="4.21875" fill="#F5C956"/>
<rect x="4.21875" y="21.0938" width="4.21875" height="4.21875" fill="#F5C956"/>
<rect x="59.0625" y="21.0938" width="4.21875" height="4.21875" fill="#F5C956"/>
<rect x="4.21875" y="25.3125" width="4.21875" height="4.21875" fill="#F5C956"/>
<rect x="59.0625" y="25.3125" width="4.21875" height="4.21875" fill="#F5C956"/>
<rect x="4.21875" y="29.5312" width="4.21875" height="4.21875" fill="#F5C956"/>
<rect x="59.0625" y="29.5312" width="4.21875" height="4.21875" fill="#F5C956"/>
<rect x="4.21875" y="33.75" width="4.21875" height="4.21875" fill="#F5C956"/>
<rect x="59.0625" y="33.75" width="4.21875" height="4.21875" fill="#F5C956"/>
<rect x="8.4375" y="33.75" width="4.21875" height="4.21875" fill="#F5C956"/>
<rect x="54.8438" y="33.75" width="4.21875" height="4.21875" fill="#F5C956"/>
<rect x="12.6562" y="33.75" width="4.21875" height="4.21875" fill="#F5C956"/>
<rect x="50.625" y="33.75" width="4.21875" height="4.21875" fill="#F5C956"/>
<rect x="16.875" y="33.75" width="4.21875" height="4.21875" fill="#F5C956"/>
<rect x="46.4062" y="33.75" width="4.21875" height="4.21875" fill="#F5C956"/>
<rect x="21.0938" y="33.75" width="4.21875" height="4.21875" fill="#F5C956"/>
<rect x="42.1875" y="33.75" width="4.21875" height="4.21875" fill="#F5C956"/>
<rect x="25.3125" y="33.75" width="4.21875" height="4.21875" fill="#F5C956"/>
<rect x="37.9688" y="33.75" width="4.21875" height="4.21875" fill="#F5C956"/>
<rect x="29.5312" y="33.75" width="4.21875" height="4.21875" fill="#F5C956"/>
<rect x="33.75" y="33.75" width="4.21875" height="4.21875" fill="#F5C956"/>
<rect x="21.0938" y="37.9688" width="4.21875" height="4.21875" fill="#F5C956"/>
<rect x="42.1875" y="37.9688" width="4.21875" height="4.21875" fill="#F5C956"/>
<rect x="16.875" y="37.9688" width="4.21875" height="4.21875" fill="#F5C956"/>
<rect x="46.4062" y="37.9688" width="4.21875" height="4.21875" fill="#F5C956"/>
<rect x="12.6562" y="37.9688" width="4.21875" height="4.21875" fill="#F5C956"/>
<rect x="50.625" y="37.9688" width="4.21875" height="4.21875" fill="#F5C956"/>
<rect x="12.6562" y="42.1875" width="4.21875" height="4.21875" fill="#F5C956"/>
<rect x="50.625" y="42.1875" width="4.21875" height="4.21875" fill="#F5C956"/>
<rect x="16.875" y="42.1875" width="4.21875" height="4.21875" fill="#F5C956"/>
<rect x="46.4062" y="42.1875" width="4.21875" height="4.21875" fill="#F5C956"/>
<rect x="16.875" y="46.4062" width="4.21875" height="4.21875" fill="#F5C956"/>
<rect x="46.4062" y="46.4062" width="4.21875" height="4.21875" fill="#F5C956"/>
<rect x="21.0938" y="42.1875" width="4.21875" height="4.21875" fill="black"/>
<rect x="42.1875" y="42.1875" width="4.21875" height="4.21875" fill="black"/>
<rect x="21.0938" y="46.4062" width="4.21875" height="4.21875" fill="#F5C956"/>
<rect x="42.1875" y="46.4062" width="4.21875" height="4.21875" fill="#F5C956"/>
<rect x="21.0938" y="50.625" width="4.21875" height="4.21875" fill="#F5C956"/>
<rect x="42.1875" y="50.625" width="4.21875" height="4.21875" fill="#F5C956"/>
<rect x="25.3125" y="50.625" width="4.21875" height="4.21875" fill="#F5C956"/>
<rect x="37.9688" y="50.625" width="4.21875" height="4.21875" fill="#F5C956"/>
<rect x="25.3125" y="46.4062" width="4.21875" height="4.21875" fill="black"/>
<rect x="37.9688" y="46.4062" width="4.21875" height="4.21875" fill="black"/>
<rect x="25.3125" y="42.1875" width="4.21875" height="4.21875" fill="#F5C956"/>
<rect x="37.9688" y="42.1875" width="4.21875" height="4.21875" fill="#F5C956"/>
<rect x="25.3125" y="37.9688" width="4.21875" height="4.21875" fill="#F5C956"/>
<rect x="37.9688" y="37.9688" width="4.21875" height="4.21875" fill="#F5C956"/>
<rect x="29.5312" y="37.9688" width="4.21875" height="4.21875" fill="#F5C956"/>
<rect x="33.75" y="37.9688" width="4.21875" height="4.21875" fill="#F5C956"/>
<rect x="29.5312" y="42.1875" width="4.21875" height="4.21875" fill="#F5C956"/>
<rect x="33.75" y="42.1875" width="4.21875" height="4.21875" fill="#F5C956"/>
<rect x="29.5312" y="46.4062" width="4.21875" height="4.21875" fill="black"/>
<rect x="33.75" y="46.4062" width="4.21875" height="4.21875" fill="black"/>
<rect x="29.5312" y="50.625" width="4.21875" height="4.21875" fill="#F5C956"/>
<rect x="33.75" y="50.625" width="4.21875" height="4.21875" fill="#F5C956"/>
<rect x="29.5312" y="4.21875" width="4.21875" height="4.21875" fill="#F5C956"/>
<rect x="33.75" y="4.21875" width="4.21875" height="4.21875" fill="#F5C956"/>
<rect x="29.5312" y="8.4375" width="4.21875" height="4.21875" fill="#F5C956"/>
<rect x="33.75" y="8.4375" width="4.21875" height="4.21875" fill="#F5C956"/>
<rect x="29.5312" y="12.6562" width="4.21875" height="4.21875" fill="#F5C956"/>
<rect x="33.75" y="12.6562" width="4.21875" height="4.21875" fill="#F5C956"/>
<rect x="29.5312" y="16.875" width="4.21875" height="4.21875" fill="#F5C956"/>
<rect x="33.75" y="16.875" width="4.21875" height="4.21875" fill="#F5C956"/>
<rect x="29.5312" y="21.0938" width="4.21875" height="4.21875" fill="#F5C956"/>
<rect x="33.75" y="21.0938" width="4.21875" height="4.21875" fill="#F5C956"/>
<rect x="29.5312" y="25.3125" width="4.21875" height="4.21875" fill="#F5C956"/>
<rect x="33.75" y="25.3125" width="4.21875" height="4.21875" fill="#F5C956"/>
<rect x="29.5312" y="29.5312" width="4.21875" height="4.21875" fill="#F5C956"/>
<rect x="33.75" y="29.5312" width="4.21875" height="4.21875" fill="#F5C956"/>
<rect x="12.6562" y="29.5312" width="4.21875" height="4.21875" fill="#F5C956"/>
<rect x="50.625" y="29.5312" width="4.21875" height="4.21875" fill="#F5C956"/>
<rect x="8.4375" y="29.5312" width="4.21875" height="4.21875" fill="#F5C956"/>
<rect x="54.8438" y="29.5312" width="4.21875" height="4.21875" fill="#F5C956"/>
<rect x="8.4375" y="25.3125" width="4.21875" height="4.21875" fill="#F5C956"/>
<rect x="54.8438" y="25.3125" width="4.21875" height="4.21875" fill="#F5C956"/>
<rect x="8.4375" y="21.0938" width="4.21875" height="4.21875" fill="#F5C956"/>
<rect x="54.8438" y="21.0938" width="4.21875" height="4.21875" fill="#F5C956"/>
<rect x="8.4375" y="16.875" width="4.21875" height="4.21875" fill="#F5C956"/>
<rect x="54.8438" y="16.875" width="4.21875" height="4.21875" fill="#F5C956"/>
<rect x="12.6562" y="16.875" width="4.21875" height="4.21875" fill="#F5C956"/>
<rect x="50.625" y="16.875" width="4.21875" height="4.21875" fill="#F5C956"/>
<rect x="12.6562" y="12.6562" width="4.21875" height="4.21875" fill="#F5C956"/>
<rect x="50.625" y="12.6562" width="4.21875" height="4.21875" fill="#F5C956"/>
<rect x="16.875" y="12.6562" width="4.21875" height="4.21875" fill="#F5C956"/>
<rect x="46.4062" y="12.6562" width="4.21875" height="4.21875" fill="#F5C956"/>
<rect x="16.875" y="8.4375" width="4.21875" height="4.21875" fill="#F5C956"/>
<rect x="46.4062" y="8.4375" width="4.21875" height="4.21875" fill="#F5C956"/>
<rect x="21.0938" y="8.4375" width="4.21875" height="4.21875" fill="#F5C956"/>
<rect x="42.1875" y="8.4375" width="4.21875" height="4.21875" fill="#F5C956"/>
<rect x="21.0938" y="4.21875" width="4.21875" height="4.21875" fill="#F5C956"/>
<rect x="42.1875" y="4.21875" width="4.21875" height="4.21875" fill="#F5C956"/>
<rect x="25.3125" y="4.21875" width="4.21875" height="4.21875" fill="#F5C956"/>
<rect x="37.9688" y="4.21875" width="4.21875" height="4.21875" fill="#F5C956"/>
<rect x="25.3125" y="8.4375" width="4.21875" height="4.21875" fill="#F5C956"/>
<rect x="37.9688" y="8.4375" width="4.21875" height="4.21875" fill="#F5C956"/>
<rect x="25.3125" y="12.6562" width="4.21875" height="4.21875" fill="#F5C956"/>
<rect x="37.9688" y="12.6562" width="4.21875" height="4.21875" fill="#F5C956"/>
<rect x="25.3125" y="16.875" width="4.21875" height="4.21875" fill="#F5C956"/>
<rect x="37.9688" y="16.875" width="4.21875" height="4.21875" fill="#F5C956"/>
<rect x="25.3125" y="21.0938" width="4.21875" height="4.21875" fill="#F5C956"/>
<rect x="37.9688" y="21.0938" width="4.21875" height="4.21875" fill="#F5C956"/>
<rect x="25.3125" y="25.3125" width="4.21875" height="4.21875" fill="#F5C956"/>
<rect x="37.9688" y="25.3125" width="4.21875" height="4.21875" fill="#F5C956"/>
<rect x="25.3125" y="29.5312" width="4.21875" height="4.21875" fill="#F5C956"/>
<rect x="37.9688" y="29.5312" width="4.21875" height="4.21875" fill="#F5C956"/>
<rect x="21.0938" y="25.3125" width="4.21875" height="4.21875" fill="black"/>
<rect x="42.1875" y="25.3125" width="4.21875" height="4.21875" fill="black"/>
<rect x="21.0938" y="21.0938" width="4.21875" height="4.21875" fill="black"/>
<rect x="42.1875" y="21.0938" width="4.21875" height="4.21875" fill="black"/>
<rect x="21.0938" y="16.875" width="4.21875" height="4.21875" fill="#F5C956"/>
<rect x="42.1875" y="16.875" width="4.21875" height="4.21875" fill="#F5C956"/>
<rect x="21.0938" y="12.6562" width="4.21875" height="4.21875" fill="#F5C956"/>
<rect x="42.1875" y="12.6562" width="4.21875" height="4.21875" fill="#F5C956"/>
<rect x="21.0938" y="29.5312" width="4.21875" height="4.21875" fill="black"/>
<rect x="42.1875" y="29.5312" width="4.21875" height="4.21875" fill="black"/>
<rect x="16.875" y="29.5312" width="4.21875" height="4.21875" fill="#F5C956"/>
<rect x="46.4062" y="29.5312" width="4.21875" height="4.21875" fill="#F5C956"/>
<rect x="16.875" y="25.3125" width="4.21875" height="4.21875" fill="#F5C956"/>
<rect x="46.4062" y="25.3125" width="4.21875" height="4.21875" fill="#F5C956"/>
<rect x="16.875" y="21.0938" width="4.21875" height="4.21875" fill="#F5C956"/>
<rect x="46.4062" y="21.0938" width="4.21875" height="4.21875" fill="#F5C956"/>
<rect x="12.6562" y="21.0938" width="4.21875" height="4.21875" fill="#F5C956"/>
<rect x="50.625" y="21.0938" width="4.21875" height="4.21875" fill="#F5C956"/>
<rect x="12.6562" y="25.3125" width="4.21875" height="4.21875" fill="#F5C956"/>
<rect x="50.625" y="25.3125" width="4.21875" height="4.21875" fill="#F5C956"/>
<rect x="16.875" y="16.875" width="4.21875" height="4.21875" fill="#F5C956"/>
<rect x="46.4062" y="16.875" width="4.21875" height="4.21875" fill="#F5C956"/>
</svg>
