<svg width="95" height="127" viewBox="0 0 95 127" fill="none" xmlns="http://www.w3.org/2000/svg">
<rect x="52.7776" width="10.5556" height="10.5556" fill="#0101FF"/>
<rect x="63.3333" width="10.5556" height="10.5556" fill="#0101FF"/>
<rect x="73.8888" width="10.5556" height="10.5556" fill="#0101FF"/>
<rect x="84.4445" width="10.5556" height="10.5556" fill="#0101FF"/>
<rect x="42.2225" y="10.5556" width="10.5556" height="10.5556" fill="#0101FF"/>
<rect x="52.7776" y="10.5556" width="10.5556" height="10.5556" fill="#0101FF"/>
<rect x="63.3333" y="10.5556" width="10.5556" height="10.5556" fill="#0101FF"/>
<rect x="73.8888" y="10.5556" width="10.5556" height="10.5556" fill="#0101FF"/>
<rect x="31.6669" y="21.1111" width="10.5556" height="10.5556" fill="#0101FF"/>
<rect x="42.2225" y="21.1111" width="10.5556" height="10.5556" fill="#0101FF"/>
<rect x="52.7776" y="21.1111" width="10.5556" height="10.5556" fill="#0101FF"/>
<rect x="63.3333" y="21.1111" width="10.5556" height="10.5556" fill="#0101FF"/>
<rect x="63.3333" y="31.6667" width="10.5556" height="10.5556" fill="#0101FF"/>
<rect x="52.7776" y="31.6667" width="10.5556" height="10.5556" fill="#0101FF"/>
<rect x="42.2225" y="31.6667" width="10.5556" height="10.5556" fill="#0101FF"/>
<rect x="31.6669" y="31.6667" width="10.5556" height="10.5556" fill="#0101FF"/>
<rect x="21.1112" y="42.2223" width="10.5556" height="10.5556" fill="#0101FF"/>
<rect x="31.6669" y="42.2223" width="10.5556" height="10.5556" fill="#0101FF"/>
<rect x="42.2225" y="42.2223" width="10.5556" height="10.5556" fill="#0101FF"/>
<rect x="52.7776" y="42.2223" width="10.5556" height="10.5556" fill="#0101FF"/>
<rect x="10.5557" y="52.7778" width="10.5556" height="10.5556" fill="#0101FF"/>
<rect x="21.1112" y="52.7778" width="10.5556" height="10.5556" fill="#0101FF"/>
<rect x="31.6669" y="52.7778" width="10.5556" height="10.5556" fill="#0101FF"/>
<rect x="42.2225" y="52.7778" width="10.5556" height="10.5556" fill="#0101FF"/>
<rect x="52.7776" y="52.7778" width="10.5556" height="10.5556" fill="#0101FF"/>
<rect x="63.3333" y="52.7778" width="10.5556" height="10.5556" fill="#0101FF"/>
<rect x="73.8888" y="52.7778" width="10.5556" height="10.5556" fill="#0101FF"/>
<rect x="84.4445" y="52.7778" width="10.5556" height="10.5556" fill="#0101FF"/>
<rect x="73.8888" y="63.3334" width="10.5556" height="10.5556" fill="#0101FF"/>
<rect x="63.3333" y="73.8889" width="10.5556" height="10.5556" fill="#0101FF"/>
<rect x="52.7776" y="84.4445" width="10.5556" height="10.5556" fill="#0101FF"/>
<rect x="42.2225" y="95.0001" width="10.5556" height="10.5556" fill="#0101FF"/>
<rect x="31.6669" y="105.556" width="10.5556" height="10.5556" fill="#0101FF"/>
<rect x="21.1112" y="116.111" width="10.5556" height="10.5556" fill="#0101FF"/>
<rect x="21.1112" y="105.556" width="10.5556" height="10.5556" fill="#0101FF"/>
<rect x="31.6669" y="95.0001" width="10.5556" height="10.5556" fill="#0101FF"/>
<rect x="31.6669" y="84.4445" width="10.5556" height="10.5556" fill="#0101FF"/>
<rect x="42.2225" y="84.4445" width="10.5556" height="10.5556" fill="#0101FF"/>
<rect x="42.2225" y="73.8889" width="10.5556" height="10.5556" fill="#0101FF"/>
<rect x="52.7776" y="73.8889" width="10.5556" height="10.5556" fill="#0101FF"/>
<rect x="52.7776" y="63.3334" width="10.5556" height="10.5556" fill="#0101FF"/>
<rect y="63.3334" width="10.5556" height="10.5556" fill="#0101FF"/>
<rect x="10.5557" y="63.3334" width="10.5556" height="10.5556" fill="#0101FF"/>
<rect x="21.1112" y="63.3334" width="10.5556" height="10.5556" fill="#0101FF"/>
<rect x="31.6669" y="63.3334" width="10.5556" height="10.5556" fill="#0101FF"/>
<rect x="42.2225" y="63.3334" width="10.5556" height="10.5556" fill="#0101FF"/>
<rect x="63.3333" y="63.3334" width="10.5556" height="10.5556" fill="#0101FF"/>
</svg>
